<svg width="20" height="21" viewBox="0 0 20 21" fill="none" xmlns="http://www.w3.org/2000/svg">
<g clip-path="url(#clip0_235_6724)">
<mask id="mask0_235_6724" style="mask-type:luminance" maskUnits="userSpaceOnUse" x="0" y="0" width="20" height="21">
<path d="M0 0.511721H20V20.5117H0V0.511721Z" fill="white"/>
</mask>
<g mask="url(#mask0_235_6724)">
<path d="M2.99585 18.9561V19.4296C2.99585 19.8656 3.34901 20.2188 3.78503 20.2188H14.9915" stroke="#9C9C9C" stroke-width="0.5" stroke-miterlimit="10" stroke-linecap="round" stroke-linejoin="round"/>
<path d="M16.2358 13.9131V6.7166" stroke="#9C9C9C" stroke-width="0.5" stroke-miterlimit="10" stroke-linecap="round" stroke-linejoin="round"/>
<path d="M15.0312 2.06758H15.4652C15.9012 2.06758 16.2543 2.4207 16.2359 2.875V5.34961" stroke="#9C9C9C" stroke-width="0.5" stroke-miterlimit="10" stroke-linecap="round" stroke-linejoin="round"/>
<path d="M1.73315 4.54121V1.59356C1.73315 1.15762 2.08628 0.804492 2.52222 0.804492H14.2023C14.6382 0.804492 14.9917 1.15762 14.9917 1.59356V10.9326" stroke="#9C9C9C" stroke-width="0.5" stroke-miterlimit="10" stroke-linecap="round" stroke-linejoin="round"/>
<path d="M1.73315 5.90879V18.167C1.73315 18.6029 2.08628 18.9561 2.52222 18.9561H12.4078" stroke="#9C9C9C" stroke-width="0.5" stroke-miterlimit="10" stroke-linecap="round" stroke-linejoin="round"/>
<path d="M14.9917 13.668V12.2996" stroke="#9C9C9C" stroke-width="0.5" stroke-miterlimit="10" stroke-linecap="round" stroke-linejoin="round"/>
<path d="M3.86401 5.30301L4.41644 5.85547L5.67913 4.59273" stroke="#9C9C9C" stroke-width="0.5" stroke-miterlimit="10" stroke-linecap="round" stroke-linejoin="round"/>
<path d="M12.8608 4.59277H9.30945" stroke="#9C9C9C" stroke-width="0.5" stroke-miterlimit="10" stroke-linecap="round" stroke-linejoin="round"/>
<path d="M8.04667 4.59277H7.25745" stroke="#9C9C9C" stroke-width="0.5" stroke-miterlimit="10" stroke-linecap="round" stroke-linejoin="round"/>
<path d="M7.25745 5.85547H10.8088" stroke="#9C9C9C" stroke-width="0.5" stroke-miterlimit="10" stroke-linecap="round" stroke-linejoin="round"/>
<path d="M12.0715 5.85547H12.8607" stroke="#9C9C9C" stroke-width="0.5" stroke-miterlimit="10" stroke-linecap="round" stroke-linejoin="round"/>
<path d="M3.86401 8.14387L4.41644 8.69629L5.67913 7.43355" stroke="#9C9C9C" stroke-width="0.5" stroke-miterlimit="10" stroke-linecap="round" stroke-linejoin="round"/>
<path d="M12.8608 7.43359H9.30945" stroke="#9C9C9C" stroke-width="0.5" stroke-miterlimit="10" stroke-linecap="round" stroke-linejoin="round"/>
<path d="M8.04667 7.43359H7.25745" stroke="#9C9C9C" stroke-width="0.5" stroke-miterlimit="10" stroke-linecap="round" stroke-linejoin="round"/>
<path d="M7.25745 8.69629H10.8088" stroke="#9C9C9C" stroke-width="0.5" stroke-miterlimit="10" stroke-linecap="round" stroke-linejoin="round"/>
<path d="M12.0715 8.69629H12.8607" stroke="#9C9C9C" stroke-width="0.5" stroke-miterlimit="10" stroke-linecap="round" stroke-linejoin="round"/>
<path d="M3.86401 10.9856L4.41644 11.5381L5.67913 10.2754" stroke="#9C9C9C" stroke-width="0.5" stroke-miterlimit="10" stroke-linecap="round" stroke-linejoin="round"/>
<path d="M12.8608 10.2754H9.30945" stroke="#9C9C9C" stroke-width="0.5" stroke-miterlimit="10" stroke-linecap="round" stroke-linejoin="round"/>
<path d="M8.04667 10.2754H7.25745" stroke="#9C9C9C" stroke-width="0.5" stroke-miterlimit="10" stroke-linecap="round" stroke-linejoin="round"/>
<path d="M7.25745 11.5381H10.8088" stroke="#9C9C9C" stroke-width="0.5" stroke-miterlimit="10" stroke-linecap="round" stroke-linejoin="round"/>
<path d="M12.0715 11.5381H12.8607" stroke="#9C9C9C" stroke-width="0.5" stroke-miterlimit="10" stroke-linecap="round" stroke-linejoin="round"/>
<path d="M3.86401 13.8264L4.41644 14.3789L5.67913 13.1162" stroke="#9C9C9C" stroke-width="0.5" stroke-miterlimit="10" stroke-linecap="round" stroke-linejoin="round"/>
<path d="M12.0716 13.1162H9.30945" stroke="#9C9C9C" stroke-width="0.5" stroke-miterlimit="10" stroke-linecap="round" stroke-linejoin="round"/>
<path d="M8.04667 13.1162H7.25745" stroke="#9C9C9C" stroke-width="0.5" stroke-miterlimit="10" stroke-linecap="round" stroke-linejoin="round"/>
<path d="M7.25745 14.3789H10.8088" stroke="#9C9C9C" stroke-width="0.5" stroke-miterlimit="10" stroke-linecap="round" stroke-linejoin="round"/>
<path d="M16.6835 16.6473C16.9393 16.3914 16.9393 15.9767 16.6835 15.7209C16.4277 15.4651 16.0129 15.4651 15.7572 15.7209L14.5227 16.9553L14.0228 16.4554C13.767 16.1996 13.3523 16.1996 13.0965 16.4554C12.8407 16.7112 12.8407 17.1259 13.0965 17.3818L14.0709 18.3336C14.3267 18.5893 14.7414 18.5893 14.9972 18.3336L16.6835 16.6473Z" stroke="#9C9C9C" stroke-width="0.5" stroke-miterlimit="10" stroke-linecap="round" stroke-linejoin="round"/>
<path d="M18.2667 16.9436C18.2667 18.7524 16.8004 20.2188 14.9916 20.2188C13.1828 20.2188 11.7164 18.7524 11.7164 16.9436C11.7164 15.1348 13.1828 13.6685 14.9916 13.6685C16.8004 13.6685 18.2667 15.1348 18.2667 16.9436Z" stroke="#9C9C9C" stroke-width="0.5" stroke-miterlimit="10" stroke-linecap="round" stroke-linejoin="round"/>
<path d="M11.2034 3.33008H5.52127C5.34689 3.33008 5.20557 3.18875 5.20557 3.01441V2.38305C5.20557 2.20871 5.34689 2.06738 5.52127 2.06738H11.2034C11.3778 2.06738 11.5191 2.20871 11.5191 2.38305V3.01441C11.5191 3.18875 11.3778 3.33008 11.2034 3.33008Z" stroke="#9C9C9C" stroke-width="0.5" stroke-miterlimit="10" stroke-linecap="round" stroke-linejoin="round"/>
</g>
</g>
<defs>
<clipPath id="clip0_235_6724">
<rect width="20" height="20" fill="white" transform="translate(0 0.511719)"/>
</clipPath>
</defs>
</svg>
